<svg width="64" height="64" viewBox="0 0 64 64" fill="none" xmlns="http://www.w3.org/2000/svg"><rect width="64" height="64" rx="32" fill="#6DC0D5" fill-opacity="0.2"></rect><path fill-rule="evenodd" clip-rule="evenodd" d="M41.3307 38.6668H39.9974C39.2614 38.6668 38.6641 38.0695 38.6641 37.3335V30.6668C38.6641 29.9308 39.2614 29.3335 39.9974 29.3335H41.3307C42.8041 29.3335 43.9974 30.5268 43.9974 32.0002V36.0002C43.9974 37.4735 42.8041 38.6668 41.3307 38.6668Z" fill="#6DC0D5" stroke="#6DC0D5" stroke-width="1.5" stroke-linecap="round" stroke-linejoin="round"></path><path fill-rule="evenodd" clip-rule="evenodd" d="M24 38.6668H22.6667C21.1933 38.6668 20 37.4735 20 36.0002V32.0002C20 30.5268 21.1933 29.3335 22.6667 29.3335H24C24.736 29.3335 25.3333 29.9308 25.3333 30.6668V37.3335C25.3333 38.0695 24.736 38.6668 24 38.6668Z" fill="#6DC0D5" stroke="#6DC0D5" stroke-width="1.5" stroke-linecap="round" stroke-linejoin="round"></path><path d="M40.6693 29.3333V28.6667C40.6693 23.88 36.7893 20 32.0026 20V20C27.2159 20 23.3359 23.88 23.3359 28.6667V29.3333" stroke="#6DC0D5" stroke-width="1.5" stroke-linecap="round" stroke-linejoin="round"></path><path fill-rule="evenodd" clip-rule="evenodd" d="M32.8333 44.3333H31.1667C30.2467 44.3333 29.5 43.5867 29.5 42.6667C29.5 41.7467 30.2467 41 31.1667 41H32.8333C33.7533 41 34.5 41.7467 34.5 42.6667C34.5 43.5867 33.7533 44.3333 32.8333 44.3333Z" fill="#6DC0D5" stroke="#6DC0D5" stroke-width="1.5" stroke-linecap="round" stroke-linejoin="round"></path><path d="M34.5 42.6665H37.3333C38.8067 42.6665 40 41.4732 40 39.9998V38.6665" stroke="#6DC0D5" stroke-width="1.5" stroke-linecap="round" stroke-linejoin="round"></path></svg>